<svg width="1247" height="96" viewBox="0 0 1247 96" fill="none" xmlns="http://www.w3.org/2000/svg">
<g filter="url(#filter0_d_14_3)">
<path d="M185.878 1.87088V79.8244H260.175V1.87088H185.878ZM225.178 68.2954C224.081 70.6334 221.988 72.1694 219.562 72.9109C215.835 73.8089 212.27 73.2969 209.618 71.6269C207.843 70.4844 206.457 68.7257 205.516 66.6996L211.174 63.0638C211.224 63.0856 211.372 63.3675 211.571 63.7317C212.292 65.0002 212.915 65.8982 214.138 66.5287C215.34 66.959 217.978 67.234 218.997 65.0151C219.619 63.8864 219.421 60.2581 219.421 56.2438C219.421 49.9358 219.449 43.654 219.449 37.4177H226.408C226.408 44.2776 226.444 50.7746 226.408 57.4686C226.423 61.5721 226.762 65.2303 225.178 68.2954ZM254.049 66.2325C251.63 74.9146 238.142 75.1965 232.753 69.4604C231.614 68.1102 230.9 67.4049 230.221 65.8464C233.085 64.1177 233.085 64.1177 235.872 62.4258C237.386 64.8673 238.785 66.21 241.304 66.7594C244.72 67.1972 248.158 65.9656 247.387 62.1583C246.594 59.0489 240.391 58.2924 236.169 54.9672C231.883 51.947 230.879 44.6081 234.401 40.4149C235.575 38.8639 237.577 37.7064 239.677 37.1502L241.869 36.8527C246.078 36.7635 248.709 37.9297 250.64 40.1922C251.177 40.7635 251.616 41.3796 252.436 42.7148C250.194 44.214 250.201 44.1997 246.99 46.3811C246.304 44.8308 245.166 43.8579 243.962 43.4351C242.095 42.8414 239.74 43.4869 239.251 45.5573C239.082 46.1953 239.117 46.789 239.386 47.8429C240.143 49.6533 242.682 50.4403 244.96 51.5385C251.516 54.3286 253.73 57.3202 254.275 60.8811C254.799 63.9469 254.148 65.9356 254.049 66.2325Z" fill="#4F3CA7"/>
</g>
<g filter="url(#filter1_d_14_3)">
<path d="M283.95 40.8477V79.8244H358.247V1.87088H283.95V40.8477ZM343.821 37.7295C345.601 38.1628 347.218 39.1393 348.469 40.5359C349.158 41.2882 349.757 42.1259 350.253 43.0304C350.253 43.1301 347.043 45.4064 345.087 46.6786C345.016 46.7285 344.731 46.4042 344.416 45.9115C344.059 45.2652 343.552 44.7244 342.942 44.3394C342.331 43.9545 341.638 43.738 340.927 43.7101C338.674 43.548 337.224 44.789 337.236 46.8283C337.217 47.336 337.328 47.8397 337.557 48.2875C338.05 49.3664 338.971 50.0088 341.86 51.3184C347.18 53.7194 349.456 55.3034 350.871 57.5547C352.452 60.0492 352.802 64.0778 351.733 67.0588C350.544 70.3016 347.631 72.503 343.512 73.2327C341.631 73.4588 339.73 73.4378 337.854 73.1703C334.99 72.6829 332.349 71.2524 330.311 69.0856C329.628 68.2936 328.296 66.2293 328.38 66.0797C328.597 65.9107 328.825 65.7585 329.063 65.6244L331.797 63.978L333.931 62.6809L334.377 63.3731C335.129 64.5023 336.087 65.4644 337.194 66.2044C339.572 67.514 342.817 67.3332 344.422 65.8177C344.961 65.2624 345.297 64.5265 345.372 63.7379C345.447 62.9494 345.256 62.1582 344.832 61.5022C344.238 60.6354 343.049 59.9058 339.726 58.3841C335.893 56.6504 334.24 55.5778 332.73 53.869C331.788 52.7414 331.092 51.4111 330.692 49.9713C330.393 48.3265 330.349 46.6419 330.561 44.9823C331.351 41.0971 334.127 38.3843 338.181 37.5798C340.058 37.3361 341.96 37.3908 343.821 37.742V37.7295ZM326.383 40.9973V44.1903H316.736V73.0207H309.895V44.1841H300.224V41.0659C300.198 39.9925 300.226 38.9184 300.307 37.848C300.343 37.7981 306.251 37.7732 313.384 37.7856H326.347L326.383 40.9973Z" fill="#4F3CA7"/>
</g>
<g filter="url(#filter2_d_14_3)">
<path d="M430.451 40.2534L443.776 16.3048L450.214 40.2534L443.776 64.1994L430.451 40.2534ZM423.957 44.1436L437.284 68.0921L414.076 61.9045L397.308 44.1436H423.957ZM437.28 12.4096L423.958 36.3632H397.309L414.076 18.5991L437.28 12.4096ZM456.3 32.105L448.172 0.623627L417.833 9.06007L413.342 17.2795L404.227 17.2115L382.022 40.2559L404.227 63.2983H404.229L413.338 63.2278L417.837 71.4448L448.171 79.8806L456.3 48.4042L451.686 40.2534L456.3 32.105Z" fill="#4F3CA7"/>
</g>
<g filter="url(#filter3_d_14_3)">
<path d="M480.094 1.87088L486.07 72.2679L512.887 80.1132L539.779 72.2393L545.76 1.87088H480.094ZM533.344 17.9992L531.355 41.4507L531.361 41.5773L531.352 41.8685V41.866L529.939 58.2637L529.783 59.7205L512.927 64.6123V64.6129L512.914 64.6247L496.086 59.7056L494.947 46.1485H503.199L503.784 53.0421L512.929 55.6426L512.927 55.6476V55.6464L522.106 53.009L523.076 41.7831H503.888L503.723 39.8854L503.348 35.4396L503.151 33.0523H523.805L524.556 24.3215H493.099L492.934 22.4251L492.559 17.978L492.362 15.5907H533.541L533.344 17.9992Z" fill="#4F3CA7"/>
</g>
<g filter="url(#filter4_d_14_3)">
<path d="M605.622 0H608.566C616.244 0.333641 623.835 3.04954 629.989 7.90512C635.82 12.4507 640.375 18.7793 642.903 25.9317C644.354 29.9148 645.081 34.1511 645.33 38.3993V41.0254C645.083 48.068 643.152 55.0695 639.546 61.0327C635.504 67.8271 629.488 73.3368 622.472 76.5161C617.878 78.6059 612.939 79.7299 607.933 79.8245H606.658C599.683 79.7053 592.744 77.542 586.868 73.5932C580.213 69.1573 574.912 62.5019 571.992 54.8113C570.374 50.6324 569.512 46.161 569.25 41.6659V38.5745C569.549 29.6005 572.788 20.7332 578.409 13.9437C583.02 8.3005 589.161 4.04111 595.929 1.8316C599.071 0.792008 602.342 0.255688 605.622 0ZM584.223 23.4004C584.205 30.9794 584.216 38.5577 584.216 46.1342C585.066 46.141 585.916 46.141 586.768 46.141C586.723 39.6347 586.828 33.1303 586.705 26.6258C586.99 27.1915 587.25 27.7733 587.575 28.314C591.262 34.2434 594.87 40.224 598.558 46.1485C599.591 46.1342 600.624 46.1342 601.657 46.151C601.655 38.5677 601.653 30.9844 601.659 23.401C600.817 23.3924 599.975 23.39 599.133 23.3936C599.178 29.8294 599.052 36.2652 599.207 42.6942C595.34 36.2384 591.42 29.8194 587.501 23.396C586.408 23.389 585.315 23.3904 584.223 23.4004ZM607.31 23.3936C607.234 30.9769 607.308 38.5602 607.282 46.141C611.128 46.1317 614.973 46.156 618.819 46.1286C618.805 45.307 618.81 44.4853 618.834 43.664C615.855 43.654 612.874 43.6683 609.892 43.6515C609.848 41.026 609.89 38.3968 609.869 35.7707C612.481 35.7221 615.093 35.7782 617.702 35.7414C617.696 34.945 617.696 34.1487 617.691 33.3517C615.084 33.4396 612.477 33.318 609.867 33.3591C609.874 30.8503 609.879 28.3389 609.879 25.827C612.672 25.827 615.465 25.8145 618.255 25.8344C618.25 25.0231 618.255 24.2093 618.265 23.3985C614.612 23.3886 610.96 23.3936 607.31 23.3936ZM620.744 23.4272C620.747 24.2167 620.747 25.0038 620.749 25.7908C622.822 25.7658 624.893 25.8588 626.966 25.8126C626.953 32.5871 626.969 39.3566 626.96 46.1267C627.828 46.1535 628.701 46.1485 629.569 46.0706C629.498 42.3338 629.639 38.5945 629.476 34.8596C629.516 33.1764 629.435 31.4957 629.546 29.8144C629.609 28.4799 629.381 27.1472 629.525 25.8126C631.615 25.8419 633.707 25.822 635.796 25.822C635.786 25.0251 635.801 24.2281 635.84 23.4322C630.807 23.3667 625.773 23.3736 620.744 23.4272ZM577.303 43.089C576.128 43.6565 576.052 45.5979 577.215 46.224C578.237 46.9599 579.774 45.9926 579.727 44.721C579.806 43.4713 578.366 42.4211 577.303 43.089ZM594.677 52.6236C592.135 54.787 592.165 59.6052 594.974 61.5104C596.56 62.5674 598.601 62.3485 600.277 61.6444C600.284 61.2572 600.293 60.8718 600.307 60.4845C598.719 61.3544 596.497 61.5322 595.151 60.1041C593.388 58.0854 593.785 54.3237 596.109 52.9473C597.424 52.2214 599.026 52.4334 600.321 53.0964C600.317 52.6848 600.319 52.2732 600.321 51.8616C598.48 51.1762 596.207 51.213 594.677 52.6236ZM604.904 54.3137C603.781 54.4509 602.671 55.0745 602.151 56.1634C601.406 57.7199 601.492 59.8222 602.664 61.1274C603.874 62.5599 606.198 62.5743 607.526 61.3127C608.968 59.8733 609.13 57.279 607.976 55.5977C607.294 54.5818 606.031 54.2364 604.904 54.3143M615.536 56.0118C614.549 57.8097 614.744 60.5331 616.486 61.7561C617.783 62.5169 619.418 62.2749 620.69 61.564C620.688 61.1792 620.693 60.7938 620.709 60.4115C619.706 61.0788 618.369 61.569 617.254 60.8961C616.476 60.4458 616.241 59.4886 616.117 58.6354C617.826 58.6111 619.532 58.5843 621.243 58.5893C621.199 57.4493 621.173 56.1609 620.381 55.2791C619.074 53.7636 616.432 54.2457 615.536 56.0118ZM610.535 54.555V62.0436C610.922 62.0436 611.315 62.0436 611.708 62.0461C611.721 60.6772 611.684 59.3058 611.721 57.9338C611.731 57.1418 612.035 56.3386 612.603 55.8048C613.079 55.4275 613.723 55.6364 614.268 55.6514C614.261 55.2547 614.256 54.8594 614.255 54.4652C613.189 54.217 612.272 54.8718 611.733 55.7854C611.721 55.3907 611.709 54.9959 611.703 54.6043C611.313 54.5893 610.922 54.5725 610.535 54.555Z" fill="#4F3CA7"/>
</g>
<g filter="url(#filter5_d_14_3)">
<path d="M604.174 55.642C605.156 55.14 606.565 55.3863 607.113 56.4527C607.737 57.6295 607.724 59.1861 607.032 60.3261C606.128 61.7517 603.747 61.4399 603.155 59.8634C602.555 58.4552 602.788 56.4434 604.174 55.6414V55.642ZM616.229 57.632C616.256 56.6504 616.909 55.6757 617.849 55.4618C618.429 55.3595 619.096 55.4662 619.497 55.9563C619.897 56.4016 619.981 57.0252 620.08 57.6027C618.796 57.6102 617.512 57.5834 616.228 57.632H616.229Z" fill="#4F3CA7"/>
</g>
<g filter="url(#filter6_d_14_3)">
<path fill-rule="evenodd" clip-rule="evenodd" d="M700.729 34.7529C700.509 31.7658 699.84 28.8852 698.909 26.0633C696.981 19.7622 693.887 14.1857 689.528 9.38748C688.426 8.17389 687.201 7.06196 686.432 5.55154C685.946 4.59614 685.483 3.62764 685.009 2.66476L684.709 1.87088C684.659 2.05298 684.626 2.11784 684.625 2.18332C684.586 3.75299 683.738 4.81753 682.683 5.81097C681.496 6.92913 680.391 8.14271 679.25 9.31451L675.743 14.1557C674.797 15.9799 673.852 17.804 672.907 19.6281L671.011 25.0019L670.953 25.0855C669.91 28.6825 669.395 32.3807 669.142 36.1162C669.047 37.52 669.155 38.9444 669.23 40.3556C669.338 42.3731 669.672 44.3562 670.173 46.3082C671.993 53.4001 675.686 59.2828 680.736 64.2805C681.674 65.2091 682.637 66.0535 683.617 66.9372C683.784 66.3354 683.918 65.7336 684.07 65.1318C684.222 64.5325 684.376 63.9363 684.479 63.3351C684.376 63.9363 684.26 64.5325 684.145 65.1318L683.654 66.9372L684.093 68.4969L684.499 70.919L684.693 73.4466C684.691 73.9599 684.672 74.4743 684.701 74.987C684.708 75.1179 684.873 75.2389 684.964 75.3649L685.782 75.6661L686.634 76.0141L686.488 73.7672L686.481 71.5545L686.776 68.1838L686.989 67.4498L687.599 66.3148C688.353 65.6787 689.162 65.1012 689.849 64.3934C691.091 63.1125 692.33 61.8153 693.442 60.4128C694.888 58.5949 696.124 56.6027 697.121 54.4783C697.788 53.054 698.416 51.6009 698.935 50.1123C699.393 48.8002 699.677 47.4213 700.037 46.0718C700.069 45.9745 700.112 45.8791 700.132 45.7799C700.878 42.1373 701.003 38.4579 700.729 34.7529ZM686.703 65.5446L686.224 64.4451L686.703 65.5446L687.406 66.1745L686.703 65.5446Z" fill="#4F3CA7"/>
</g>
<g filter="url(#filter7_d_14_3)">
<path d="M782.333 19.5196L782.511 19.3948C782.154 18.7089 781.62 18.0852 781.085 17.7734L752.376 0.43654C751.901 0.124726 751.247 0 750.534 0C749.821 0 749.167 0.187089 748.691 0.43654L720.161 17.8358C719.151 18.4594 718.438 20.0185 718.438 21.2034V55.9395C718.438 56.6255 718.556 57.3738 718.972 58.0598L718.854 58.1222C719.151 58.6211 719.567 59.0576 719.983 59.3071L748.632 76.7063C749.107 77.0181 749.761 77.1429 750.474 77.1429C751.188 77.1429 751.841 76.9558 752.317 76.7063L780.847 59.3071C781.857 58.6835 782.571 57.1244 782.571 55.9395V21.141C782.63 20.6421 782.571 20.0808 782.333 19.5196ZM750.534 63.1736C737.576 63.1736 727.056 52.1354 727.056 38.5402C727.056 24.9451 737.576 13.9069 750.534 13.9069C759.271 13.9069 766.879 18.9583 770.921 26.3795L763.194 31.0567C760.698 26.3795 755.943 23.2613 750.534 23.2613C742.51 23.2613 735.972 30.1213 735.972 38.5402C735.972 46.9592 742.51 53.8192 750.534 53.8192C755.943 53.8192 760.698 50.701 763.194 46.0862L770.861 50.8257C766.82 58.1846 759.212 63.1736 750.534 63.1736ZM780.847 37.293H778.945L778.41 39.7875H780.847V42.9057H777.875L777.162 46.6474H774.249L774.963 42.9057H772.704L771.991 46.6474H769.138L769.851 42.9057H768.365V39.7875H770.445L770.98 37.293H768.365V34.1748H771.515L772.228 30.4331H775.141L774.428 34.1748H776.686L777.399 30.4331H780.252L779.539 34.1748H780.847V37.293ZM773.298 39.7875H775.557L776.092 37.293H773.833L773.298 39.7875Z" fill="#4F3CA7"/>
</g>
<g filter="url(#filter8_d_14_3)">
<path d="M806.405 40.037L844.445 0H867.863L818.174 52.1353L806.405 40.037ZM844.445 79.8245H867.863L847.595 58.5587L867.863 36.8564H844.445L824.177 58.3093L844.445 79.8245Z" fill="#4F3CA7"/>
</g>
<g filter="url(#filter9_d_14_3)">
<path d="M965.034 37.1025L932.274 2.7318C930.389 0.752404 927.329 0.752404 925.44 2.7318L918.639 9.86985L927.268 18.9237C929.274 18.2134 931.573 18.6898 933.171 20.3668C933.933 21.1667 934.465 22.1753 934.706 23.2774C934.947 24.3794 934.887 25.5304 934.534 26.5987L942.851 35.3257C944.863 34.598 947.185 35.0682 948.791 36.757C951.038 39.1124 951.038 42.9309 948.791 45.2876C948.257 45.8481 947.623 46.2927 946.925 46.596C946.228 46.8993 945.48 47.0555 944.725 47.0555C943.969 47.0555 943.221 46.8993 942.524 46.596C941.826 46.2927 941.192 45.8481 940.658 45.2876C939.856 44.4454 939.309 43.3731 939.086 42.2056C938.864 41.0381 938.975 39.8276 939.407 38.7264L931.652 30.5887L931.65 52.0047C932.213 52.2954 932.727 52.6805 933.171 53.1447C935.418 55.5001 935.418 59.3174 933.171 61.6778C930.925 64.0332 927.285 64.0332 925.041 61.6778C922.795 59.318 922.611 55.5008 924.856 53.1447C925.411 52.5628 925.959 52.1232 926.553 51.8288V30.2145C925.959 29.9201 925.412 29.4836 924.855 28.898C923.155 27.1144 922.837 24.4952 923.71 22.3025L915.25 13.3765L892.81 36.9434C890.923 38.9247 890.935 42.1352 892.822 44.1152L925.587 78.4858C927.473 80.4652 930.535 80.4652 932.424 78.4858L965.032 44.2748C966.919 42.2942 966.921 39.0819 965.034 37.1025Z" fill="#4F3CA7"/>
</g>
<g filter="url(#filter10_d_14_3)">
<path d="M120.088 41.1433H133.925L126.569 25.0056L120.088 41.1433ZM126.594 1.87088L91.373 14.876L96.9381 63.2927L126.631 80.4156L156.477 63.0613L162.04 14.6459L126.594 1.87088ZM117.223 48.0032L112.905 59.3383L104.833 59.3732L126.591 8.81L126.55 8.71458H126.512L126.512 8.63164L126.55 8.71458H126.634L126.707 8.54371V8.71458H126.633L126.592 8.81L149.291 59.584L141.52 59.405L136.74 47.818L126.533 47.8691" fill="#4F3CA7"/>
</g>
<g filter="url(#filter11_d_14_3)">
<path d="M1204.99 46.3356C1208.73 46.3356 1211.77 43.1527 1211.77 39.2263C1211.77 35.2999 1208.73 32.1169 1204.99 32.1169C1201.25 32.1169 1198.22 35.2999 1198.22 39.2263C1198.22 43.1527 1201.25 46.3356 1204.99 46.3356Z" fill="#4F3CA7"/>
</g>
<g filter="url(#filter12_d_14_3)">
<path d="M1230.73 27.502C1229.42 27.0031 1228.05 26.5042 1226.63 26.0677C1226.98 24.571 1227.28 23.0742 1227.52 21.6399C1228.77 13.408 1227.4 7.60826 1223.6 5.36319C1222.47 4.6772 1221.22 4.36539 1219.79 4.36539C1215.63 4.36539 1210.34 7.60826 1204.99 13.0338C1199.64 7.60826 1194.35 4.36539 1190.19 4.36539C1188.77 4.36539 1187.52 4.6772 1186.39 5.36319C1182.58 7.67062 1181.22 13.4704 1182.47 21.6399C1182.7 23.0742 1183 24.571 1183.36 26.0677C1181.93 26.5042 1180.56 26.9407 1179.26 27.502C1171.83 30.4954 1167.78 34.6114 1167.78 39.2262C1167.78 43.8411 1171.89 47.957 1179.26 50.9504C1180.56 51.4493 1181.93 51.9482 1183.36 52.3848C1183 53.8815 1182.7 55.3782 1182.47 56.8125C1181.22 65.0444 1182.58 70.8442 1186.39 73.0893C1187.52 73.7752 1188.77 74.0871 1190.19 74.0871C1194.41 74.0871 1199.7 70.8442 1204.99 65.4186C1210.34 70.8442 1215.63 74.0871 1219.79 74.0871C1221.22 74.0871 1222.47 73.7752 1223.6 73.0893C1227.4 70.7818 1228.77 64.9821 1227.52 56.8125C1227.28 55.3782 1226.98 53.8815 1226.63 52.3848C1228.05 51.9482 1229.42 51.5117 1230.73 50.9504C1238.16 47.957 1242.2 43.8411 1242.2 39.2262C1242.2 34.6114 1238.16 30.4954 1230.73 27.502ZM1221.93 8.48134C1224.37 9.97804 1225.2 14.5929 1224.19 21.141C1224.01 22.4506 1223.71 23.8226 1223.36 25.2569C1220.27 24.5086 1217 24.0097 1213.55 23.6979C1211.53 20.7045 1209.45 18.0229 1207.37 15.5907C1211.77 11.0382 1216.23 7.92007 1219.85 7.92007C1220.62 7.92007 1221.34 8.10716 1221.93 8.48134ZM1215.27 45.4625C1214.2 47.4581 1212.96 49.4537 1211.65 51.4493C1209.45 51.6364 1207.25 51.6988 1204.99 51.6988C1202.67 51.6988 1200.47 51.6364 1198.34 51.4493C1197.03 49.4537 1195.84 47.4581 1194.77 45.4625C1193.64 43.4045 1192.57 41.2842 1191.62 39.2262C1192.57 37.1683 1193.64 35.0479 1194.77 32.9899C1195.84 30.9943 1197.09 28.9987 1198.39 27.0031C1200.59 26.816 1202.79 26.7537 1205.05 26.7537C1207.37 26.7537 1209.57 26.816 1211.71 27.0031C1213.02 28.9987 1214.2 30.9943 1215.27 32.9899C1216.4 35.0479 1217.47 37.1683 1218.42 39.2262C1217.41 41.2842 1216.4 43.3422 1215.27 45.4625ZM1220.21 43.4045C1221.1 45.5872 1221.81 47.7076 1222.47 49.8279C1220.45 50.3268 1218.31 50.701 1216.05 51.0128C1216.76 49.8279 1217.53 48.5807 1218.19 47.271C1218.9 45.9614 1219.55 44.6518 1220.21 43.4045ZM1204.99 60.3049C1203.57 58.6834 1202.2 56.9373 1200.89 55.1288C1202.26 55.1911 1203.63 55.2535 1204.99 55.2535C1206.36 55.2535 1207.73 55.1911 1209.09 55.1288C1207.79 56.9373 1206.42 58.6834 1204.99 60.3049ZM1193.94 50.9504C1191.68 50.6386 1189.54 50.2645 1187.52 49.7655C1188.17 47.7076 1188.88 45.5249 1189.78 43.3422C1190.43 44.5894 1191.08 45.899 1191.8 47.1463C1192.51 48.5183 1193.22 49.7032 1193.94 50.9504ZM1189.78 35.0479C1188.88 32.8652 1188.17 30.7449 1187.52 28.6245C1189.54 28.1256 1191.68 27.7515 1193.94 27.4396C1193.22 28.6245 1192.45 29.8718 1191.8 31.1814C1191.08 32.491 1190.43 33.8007 1189.78 35.0479ZM1204.99 18.1476C1206.42 19.769 1207.79 21.5152 1209.09 23.3237C1207.73 23.2613 1206.36 23.199 1204.99 23.199C1203.63 23.199 1202.26 23.2613 1200.89 23.3237C1202.2 21.5152 1203.57 19.769 1204.99 18.1476ZM1218.19 31.2438L1216.05 27.502C1218.31 27.8138 1220.45 28.188 1222.47 28.6869C1221.81 30.7449 1221.1 32.9276 1220.21 35.1103C1219.55 33.8007 1218.9 32.491 1218.19 31.2438ZM1185.79 21.141C1184.78 14.5929 1185.62 9.97804 1188.05 8.48134C1188.65 8.10716 1189.36 7.92007 1190.13 7.92007C1193.7 7.92007 1198.16 10.9758 1202.61 15.5907C1200.53 17.9605 1198.45 20.7045 1196.43 23.6979C1192.99 24.0097 1189.72 24.571 1186.63 25.2569C1186.27 23.8226 1186.03 22.4506 1185.79 21.141ZM1171.11 39.2262C1171.11 36.2952 1174.5 33.177 1180.44 30.8696C1181.63 30.3707 1182.94 29.9342 1184.25 29.56C1185.2 32.6781 1186.39 35.9834 1187.81 39.2886C1186.39 42.5938 1185.14 45.8367 1184.25 48.9548C1176.05 46.4603 1171.11 42.7185 1171.11 39.2262ZM1188.05 69.9711C1185.62 68.4744 1184.78 63.8596 1185.79 57.3115C1185.97 56.0018 1186.27 54.6299 1186.63 53.1955C1189.72 53.9439 1192.99 54.4428 1196.43 54.7546C1198.45 57.748 1200.53 60.4296 1202.61 62.8617C1198.22 67.4142 1193.76 70.5324 1190.13 70.5324C1189.36 70.5324 1188.65 70.3453 1188.05 69.9711ZM1224.19 57.3115C1225.2 63.8596 1224.37 68.4744 1221.93 69.9711C1221.34 70.3453 1220.62 70.5324 1219.85 70.5324C1216.29 70.5324 1211.83 67.4766 1207.37 62.8617C1209.45 60.492 1211.53 57.748 1213.55 54.7546C1217 54.4428 1220.27 53.8815 1223.36 53.1955C1223.71 54.6299 1223.95 56.0018 1224.19 57.3115ZM1229.54 47.5828C1228.35 48.0817 1227.04 48.5183 1225.74 48.8925C1224.78 45.7743 1223.6 42.4691 1222.17 39.1639C1223.6 35.8586 1224.84 32.6158 1225.74 29.4976C1233.94 31.9921 1238.87 35.7339 1238.87 39.2262C1238.87 42.1573 1235.42 45.2754 1229.54 47.5828Z" fill="#4F3CA7"/>
</g>
<g filter="url(#filter13_d_14_3)">
<path d="M1079.24 75.3817L1073.3 5.40118H1138.64L1132.69 75.3711L1105.93 83.154L1079.24 75.3817Z" fill="#4F3CA7"/>
</g>
<g filter="url(#filter14_d_14_3)">
<path d="M1105.97 77.2052L1127.59 70.9152L1132.68 11.123H1105.97V77.2052Z" fill="#4F3CA7"/>
</g>
<g filter="url(#filter15_d_14_3)">
<path d="M1105.97 37.0778H1095.14L1094.4 28.2884H1105.97V19.706H1085.46L1085.65 22.0084L1087.66 45.6608H1105.97V37.0778ZM1105.97 59.3681L1105.93 59.3787L1096.82 56.7969L1096.24 49.9526H1088.03L1089.17 63.4286L1105.93 68.3091L1105.97 68.2985V59.3681Z" fill="#291C47"/>
</g>
<g filter="url(#filter16_d_14_3)">
<path d="M1105.94 37.0778V45.6608H1116.01L1115.06 56.7919L1105.94 59.3756V68.3054L1122.71 63.4286L1122.83 61.9787L1124.76 39.3827L1124.96 37.0778H1122.75H1105.94ZM1105.94 19.706V28.2884H1125.7L1125.86 26.3601L1126.24 22.0084L1126.43 19.706H1105.94Z" fill="#291C47"/>
</g>
<g filter="url(#filter17_d_14_3)">
<path d="M65.0291 16.7089L38.7917 0.740871C37.1387 -0.246957 34.9734 -0.246957 33.3074 0.740871L6.86488 16.7089C5.15962 17.7385 4 19.6736 4 21.7434V53.637C4 55.7069 5.18399 57.6426 6.88985 58.6778L13.8613 62.8486C17.2058 64.5773 18.1324 64.5773 19.654 64.5773C24.6075 64.5773 27.18 61.4349 27.18 55.9538V24.4668C27.1806 24.0222 27.4451 23.3605 27.0284 23.3605H23.6869C23.2637 23.3605 22.4256 24.0222 22.4256 24.4662V55.9532C22.4256 58.3828 20.2763 60.8007 16.3618 58.747L9.15679 54.3735C8.90596 54.2301 8.75499 53.9414 8.75499 53.637V21.7434C8.75499 21.4428 9.03019 21.141 9.28458 20.987L35.6617 5.0464C35.7912 4.97422 35.9356 4.93647 36.0822 4.93647C36.2289 4.93647 36.3733 4.97422 36.5027 5.0464L62.6332 20.9832C62.8834 21.141 62.8436 21.4335 62.8436 21.7434V53.637C62.8436 53.9414 62.8983 54.2376 62.6516 54.3841L36.4201 70.3341C36.1955 70.4756 35.903 70.4756 35.6564 70.3341L28.9298 66.1252C28.7271 66.0017 28.4829 65.9574 28.2879 66.0716C26.4186 67.1835 26.0715 67.3313 24.3181 67.9693C23.886 68.127 23.2488 68.4008 24.5606 69.1722L33.3561 74.6315C34.1958 75.1405 35.1484 75.4085 36.1182 75.4085C37.0917 75.4102 38.0484 75.1421 38.8915 74.6315L65.0297 58.6778C66.7362 57.6351 67.5986 55.7069 67.5986 53.637V21.7434C67.598 19.6736 66.7356 17.7435 65.0291 16.7089ZM44.2552 48.5831C37.2849 48.5831 35.7503 46.5657 35.2385 42.9293C35.1779 42.5377 34.8617 42.0694 34.4813 42.0694H31.0755C30.6541 42.0694 30.3147 42.6057 30.3147 43.046C30.3147 47.702 32.7279 53.3433 44.2552 53.3433C52.599 53.3433 57.3837 49.9414 57.3837 43.9209C57.3837 37.9515 53.5399 36.385 45.4475 35.2612C37.2677 34.1268 36.4368 33.5537 36.4368 31.5431C36.4368 29.8855 37.1405 27.6748 43.1972 27.6748C48.6084 27.6748 50.6031 28.8933 51.4239 32.7205C51.4946 33.0804 51.8079 33.3386 52.1615 33.3386H55.5816C55.792 33.3386 55.9923 33.2494 56.1397 33.0916C56.2829 32.922 56.3578 32.7093 56.3394 32.4811C55.8086 25.8899 51.6361 22.8186 43.1966 22.8186C35.6885 22.8186 31.2104 26.145 31.2104 31.7209C31.2104 37.7688 35.6665 39.4401 42.8732 40.1879C51.4946 41.0747 52.1651 42.3968 52.1651 44.176C52.1651 47.2667 49.8007 48.5831 44.2552 48.5831Z" fill="#4F3CA7"/>
</g>
<g filter="url(#filter18_d_14_3)">
<path d="M1007.69 60.8244C996.281 64.1683 1014.63 71.0762 1029.15 64.5468C1026.78 63.5764 1025.07 62.457 1025.07 62.457C1018.59 63.7417 1015.59 63.8427 1009.71 63.138C1004.86 62.5549 1007.69 60.8244 1007.69 60.8244ZM1027.42 54.3012C1018.83 56.0343 1013.87 55.9788 1007.59 55.299C1002.73 54.7721 1005.91 52.3025 1005.91 52.3025C993.35 56.6779 1012.91 61.6426 1030.47 56.2538C1028.6 55.5641 1027.42 54.3012 1027.42 54.3012ZM1034.14 16.5249C1034.14 16.5249 1008.74 23.1784 1020.87 37.8449C1024.46 42.1698 1019.94 46.0581 1019.94 46.0581C1019.94 46.0581 1029.02 41.137 1024.85 34.9718C1020.95 29.2251 1017.96 26.3701 1034.14 16.5249ZM1040.09 67.1286C1040.09 67.1286 1042.18 68.9434 1037.77 70.3459C1029.39 73.0101 1002.88 73.8133 995.518 70.4526C992.873 69.244 997.835 67.5683 999.396 67.2147C1001.02 66.8449 1001.95 66.9122 1001.95 66.9122C999.011 64.7376 982.926 71.1841 993.786 73.0331C1023.4 78.0696 1047.77 70.765 1040.09 67.1286ZM1029.91 48.2121C1031.33 47.1931 1033.3 46.3082 1033.3 46.3082C1033.3 46.3082 1027.7 47.359 1022.12 47.851C1015.28 48.4522 1007.96 48.5707 1004.28 48.0543C995.569 46.8326 1009.05 43.4719 1009.05 43.4719C1009.05 43.4719 1003.81 43.1002 997.376 46.368C989.761 50.2314 1016.21 51.9925 1029.91 48.2121ZM1033.24 57.657C1033.18 57.8378 1032.96 58.0411 1032.96 58.0411C1051.55 52.9143 1044.72 39.969 1035.83 43.2455C1035.05 43.5349 1034.64 44.2078 1034.64 44.2078C1034.64 44.2078 1035.13 43.9995 1036.23 43.7588C1040.73 42.7766 1047.16 50.0693 1033.24 57.657ZM1017.53 43.331C1014.79 36.8271 1005.49 31.1372 1017.54 21.1554C1032.56 8.71583 1024.85 0.623627 1024.85 0.623627C1027.96 13.4754 1013.88 17.3575 1008.8 25.3611C1005.34 30.8147 1010.5 36.675 1017.53 43.331ZM1033.74 75.6025C1022.34 77.855 1008.27 77.5925 999.933 76.1476C999.933 76.1476 1001.64 77.6318 1010.42 78.2249C1023.78 79.121 1044.3 77.726 1044.79 71.093C1044.79 71.093 1043.85 73.6075 1033.74 75.6025Z" fill="#4F3CA7"/>
</g>
<defs>
<filter id="filter0_d_14_3" x="181.878" y="1.87088" width="82.2968" height="89.9536" filterUnits="userSpaceOnUse" color-interpolation-filters="sRGB">
<feFlood flood-opacity="0" result="BackgroundImageFix"/>
<feColorMatrix in="SourceAlpha" type="matrix" values="0 0 0 0 0 0 0 0 0 0 0 0 0 0 0 0 0 0 127 0" result="hardAlpha"/>
<feOffset dy="8"/>
<feGaussianBlur stdDeviation="2"/>
<feComposite in2="hardAlpha" operator="out"/>
<feColorMatrix type="matrix" values="0 0 0 0 0 0 0 0 0 0 0 0 0 0 0 0 0 0 0.25 0"/>
<feBlend mode="normal" in2="BackgroundImageFix" result="effect1_dropShadow_14_3"/>
<feBlend mode="normal" in="SourceGraphic" in2="effect1_dropShadow_14_3" result="shape"/>
</filter>
<filter id="filter1_d_14_3" x="279.95" y="1.87088" width="82.2968" height="89.9536" filterUnits="userSpaceOnUse" color-interpolation-filters="sRGB">
<feFlood flood-opacity="0" result="BackgroundImageFix"/>
<feColorMatrix in="SourceAlpha" type="matrix" values="0 0 0 0 0 0 0 0 0 0 0 0 0 0 0 0 0 0 127 0" result="hardAlpha"/>
<feOffset dy="8"/>
<feGaussianBlur stdDeviation="2"/>
<feComposite in2="hardAlpha" operator="out"/>
<feColorMatrix type="matrix" values="0 0 0 0 0 0 0 0 0 0 0 0 0 0 0 0 0 0 0.25 0"/>
<feBlend mode="normal" in2="BackgroundImageFix" result="effect1_dropShadow_14_3"/>
<feBlend mode="normal" in="SourceGraphic" in2="effect1_dropShadow_14_3" result="shape"/>
</filter>
<filter id="filter2_d_14_3" x="378.022" y="0.623627" width="82.2783" height="91.257" filterUnits="userSpaceOnUse" color-interpolation-filters="sRGB">
<feFlood flood-opacity="0" result="BackgroundImageFix"/>
<feColorMatrix in="SourceAlpha" type="matrix" values="0 0 0 0 0 0 0 0 0 0 0 0 0 0 0 0 0 0 127 0" result="hardAlpha"/>
<feOffset dy="8"/>
<feGaussianBlur stdDeviation="2"/>
<feComposite in2="hardAlpha" operator="out"/>
<feColorMatrix type="matrix" values="0 0 0 0 0 0 0 0 0 0 0 0 0 0 0 0 0 0 0.25 0"/>
<feBlend mode="normal" in2="BackgroundImageFix" result="effect1_dropShadow_14_3"/>
<feBlend mode="normal" in="SourceGraphic" in2="effect1_dropShadow_14_3" result="shape"/>
</filter>
<filter id="filter3_d_14_3" x="476.094" y="1.87088" width="73.6664" height="90.2423" filterUnits="userSpaceOnUse" color-interpolation-filters="sRGB">
<feFlood flood-opacity="0" result="BackgroundImageFix"/>
<feColorMatrix in="SourceAlpha" type="matrix" values="0 0 0 0 0 0 0 0 0 0 0 0 0 0 0 0 0 0 127 0" result="hardAlpha"/>
<feOffset dy="8"/>
<feGaussianBlur stdDeviation="2"/>
<feComposite in2="hardAlpha" operator="out"/>
<feColorMatrix type="matrix" values="0 0 0 0 0 0 0 0 0 0 0 0 0 0 0 0 0 0 0.25 0"/>
<feBlend mode="normal" in2="BackgroundImageFix" result="effect1_dropShadow_14_3"/>
<feBlend mode="normal" in="SourceGraphic" in2="effect1_dropShadow_14_3" result="shape"/>
</filter>
<filter id="filter4_d_14_3" x="565.25" y="0" width="84.0799" height="91.8245" filterUnits="userSpaceOnUse" color-interpolation-filters="sRGB">
<feFlood flood-opacity="0" result="BackgroundImageFix"/>
<feColorMatrix in="SourceAlpha" type="matrix" values="0 0 0 0 0 0 0 0 0 0 0 0 0 0 0 0 0 0 127 0" result="hardAlpha"/>
<feOffset dy="8"/>
<feGaussianBlur stdDeviation="2"/>
<feComposite in2="hardAlpha" operator="out"/>
<feColorMatrix type="matrix" values="0 0 0 0 0 0 0 0 0 0 0 0 0 0 0 0 0 0 0.25 0"/>
<feBlend mode="normal" in2="BackgroundImageFix" result="effect1_dropShadow_14_3"/>
<feBlend mode="normal" in="SourceGraphic" in2="effect1_dropShadow_14_3" result="shape"/>
</filter>
<filter id="filter5_d_14_3" x="598.844" y="55.3921" width="25.2355" height="17.847" filterUnits="userSpaceOnUse" color-interpolation-filters="sRGB">
<feFlood flood-opacity="0" result="BackgroundImageFix"/>
<feColorMatrix in="SourceAlpha" type="matrix" values="0 0 0 0 0 0 0 0 0 0 0 0 0 0 0 0 0 0 127 0" result="hardAlpha"/>
<feOffset dy="8"/>
<feGaussianBlur stdDeviation="2"/>
<feComposite in2="hardAlpha" operator="out"/>
<feColorMatrix type="matrix" values="0 0 0 0 0 0 0 0 0 0 0 0 0 0 0 0 0 0 0.25 0"/>
<feBlend mode="normal" in2="BackgroundImageFix" result="effect1_dropShadow_14_3"/>
<feBlend mode="normal" in="SourceGraphic" in2="effect1_dropShadow_14_3" result="shape"/>
</filter>
<filter id="filter6_d_14_3" x="665.105" y="1.87088" width="39.7578" height="86.1432" filterUnits="userSpaceOnUse" color-interpolation-filters="sRGB">
<feFlood flood-opacity="0" result="BackgroundImageFix"/>
<feColorMatrix in="SourceAlpha" type="matrix" values="0 0 0 0 0 0 0 0 0 0 0 0 0 0 0 0 0 0 127 0" result="hardAlpha"/>
<feOffset dy="8"/>
<feGaussianBlur stdDeviation="2"/>
<feComposite in2="hardAlpha" operator="out"/>
<feColorMatrix type="matrix" values="0 0 0 0 0 0 0 0 0 0 0 0 0 0 0 0 0 0 0.25 0"/>
<feBlend mode="normal" in2="BackgroundImageFix" result="effect1_dropShadow_14_3"/>
<feBlend mode="normal" in="SourceGraphic" in2="effect1_dropShadow_14_3" result="shape"/>
</filter>
<filter id="filter7_d_14_3" x="714.438" y="0" width="72.1544" height="89.1429" filterUnits="userSpaceOnUse" color-interpolation-filters="sRGB">
<feFlood flood-opacity="0" result="BackgroundImageFix"/>
<feColorMatrix in="SourceAlpha" type="matrix" values="0 0 0 0 0 0 0 0 0 0 0 0 0 0 0 0 0 0 127 0" result="hardAlpha"/>
<feOffset dy="8"/>
<feGaussianBlur stdDeviation="2"/>
<feComposite in2="hardAlpha" operator="out"/>
<feColorMatrix type="matrix" values="0 0 0 0 0 0 0 0 0 0 0 0 0 0 0 0 0 0 0.25 0"/>
<feBlend mode="normal" in2="BackgroundImageFix" result="effect1_dropShadow_14_3"/>
<feBlend mode="normal" in="SourceGraphic" in2="effect1_dropShadow_14_3" result="shape"/>
</filter>
<filter id="filter8_d_14_3" x="802.405" y="0" width="69.4583" height="91.8245" filterUnits="userSpaceOnUse" color-interpolation-filters="sRGB">
<feFlood flood-opacity="0" result="BackgroundImageFix"/>
<feColorMatrix in="SourceAlpha" type="matrix" values="0 0 0 0 0 0 0 0 0 0 0 0 0 0 0 0 0 0 127 0" result="hardAlpha"/>
<feOffset dy="8"/>
<feGaussianBlur stdDeviation="2"/>
<feComposite in2="hardAlpha" operator="out"/>
<feColorMatrix type="matrix" values="0 0 0 0 0 0 0 0 0 0 0 0 0 0 0 0 0 0 0.25 0"/>
<feBlend mode="normal" in2="BackgroundImageFix" result="effect1_dropShadow_14_3"/>
<feBlend mode="normal" in="SourceGraphic" in2="effect1_dropShadow_14_3" result="shape"/>
</filter>
<filter id="filter9_d_14_3" x="887.4" y="1.24725" width="83.0475" height="90.7231" filterUnits="userSpaceOnUse" color-interpolation-filters="sRGB">
<feFlood flood-opacity="0" result="BackgroundImageFix"/>
<feColorMatrix in="SourceAlpha" type="matrix" values="0 0 0 0 0 0 0 0 0 0 0 0 0 0 0 0 0 0 127 0" result="hardAlpha"/>
<feOffset dy="8"/>
<feGaussianBlur stdDeviation="2"/>
<feComposite in2="hardAlpha" operator="out"/>
<feColorMatrix type="matrix" values="0 0 0 0 0 0 0 0 0 0 0 0 0 0 0 0 0 0 0.25 0"/>
<feBlend mode="normal" in2="BackgroundImageFix" result="effect1_dropShadow_14_3"/>
<feBlend mode="normal" in="SourceGraphic" in2="effect1_dropShadow_14_3" result="shape"/>
</filter>
<filter id="filter10_d_14_3" x="87.373" y="1.87088" width="78.6675" height="90.5448" filterUnits="userSpaceOnUse" color-interpolation-filters="sRGB">
<feFlood flood-opacity="0" result="BackgroundImageFix"/>
<feColorMatrix in="SourceAlpha" type="matrix" values="0 0 0 0 0 0 0 0 0 0 0 0 0 0 0 0 0 0 127 0" result="hardAlpha"/>
<feOffset dy="8"/>
<feGaussianBlur stdDeviation="2"/>
<feComposite in2="hardAlpha" operator="out"/>
<feColorMatrix type="matrix" values="0 0 0 0 0 0 0 0 0 0 0 0 0 0 0 0 0 0 0.25 0"/>
<feBlend mode="normal" in2="BackgroundImageFix" result="effect1_dropShadow_14_3"/>
<feBlend mode="normal" in="SourceGraphic" in2="effect1_dropShadow_14_3" result="shape"/>
</filter>
<filter id="filter11_d_14_3" x="1194.22" y="32.1169" width="21.5518" height="26.2187" filterUnits="userSpaceOnUse" color-interpolation-filters="sRGB">
<feFlood flood-opacity="0" result="BackgroundImageFix"/>
<feColorMatrix in="SourceAlpha" type="matrix" values="0 0 0 0 0 0 0 0 0 0 0 0 0 0 0 0 0 0 127 0" result="hardAlpha"/>
<feOffset dy="8"/>
<feGaussianBlur stdDeviation="2"/>
<feComposite in2="hardAlpha" operator="out"/>
<feColorMatrix type="matrix" values="0 0 0 0 0 0 0 0 0 0 0 0 0 0 0 0 0 0 0.25 0"/>
<feBlend mode="normal" in2="BackgroundImageFix" result="effect1_dropShadow_14_3"/>
<feBlend mode="normal" in="SourceGraphic" in2="effect1_dropShadow_14_3" result="shape"/>
</filter>
<filter id="filter12_d_14_3" x="1163.78" y="4.36539" width="82.4156" height="81.7217" filterUnits="userSpaceOnUse" color-interpolation-filters="sRGB">
<feFlood flood-opacity="0" result="BackgroundImageFix"/>
<feColorMatrix in="SourceAlpha" type="matrix" values="0 0 0 0 0 0 0 0 0 0 0 0 0 0 0 0 0 0 127 0" result="hardAlpha"/>
<feOffset dy="8"/>
<feGaussianBlur stdDeviation="2"/>
<feComposite in2="hardAlpha" operator="out"/>
<feColorMatrix type="matrix" values="0 0 0 0 0 0 0 0 0 0 0 0 0 0 0 0 0 0 0.25 0"/>
<feBlend mode="normal" in2="BackgroundImageFix" result="effect1_dropShadow_14_3"/>
<feBlend mode="normal" in="SourceGraphic" in2="effect1_dropShadow_14_3" result="shape"/>
</filter>
<filter id="filter13_d_14_3" x="1069.3" y="5.40118" width="73.3431" height="89.7528" filterUnits="userSpaceOnUse" color-interpolation-filters="sRGB">
<feFlood flood-opacity="0" result="BackgroundImageFix"/>
<feColorMatrix in="SourceAlpha" type="matrix" values="0 0 0 0 0 0 0 0 0 0 0 0 0 0 0 0 0 0 127 0" result="hardAlpha"/>
<feOffset dy="8"/>
<feGaussianBlur stdDeviation="2"/>
<feComposite in2="hardAlpha" operator="out"/>
<feColorMatrix type="matrix" values="0 0 0 0 0 0 0 0 0 0 0 0 0 0 0 0 0 0 0.25 0"/>
<feBlend mode="normal" in2="BackgroundImageFix" result="effect1_dropShadow_14_3"/>
<feBlend mode="normal" in="SourceGraphic" in2="effect1_dropShadow_14_3" result="shape"/>
</filter>
<filter id="filter14_d_14_3" x="1101.97" y="11.123" width="34.7094" height="78.0822" filterUnits="userSpaceOnUse" color-interpolation-filters="sRGB">
<feFlood flood-opacity="0" result="BackgroundImageFix"/>
<feColorMatrix in="SourceAlpha" type="matrix" values="0 0 0 0 0 0 0 0 0 0 0 0 0 0 0 0 0 0 127 0" result="hardAlpha"/>
<feOffset dy="8"/>
<feGaussianBlur stdDeviation="2"/>
<feComposite in2="hardAlpha" operator="out"/>
<feColorMatrix type="matrix" values="0 0 0 0 0 0 0 0 0 0 0 0 0 0 0 0 0 0 0.25 0"/>
<feBlend mode="normal" in2="BackgroundImageFix" result="effect1_dropShadow_14_3"/>
<feBlend mode="normal" in="SourceGraphic" in2="effect1_dropShadow_14_3" result="shape"/>
</filter>
<filter id="filter15_d_14_3" x="1081.46" y="19.706" width="28.5125" height="60.6031" filterUnits="userSpaceOnUse" color-interpolation-filters="sRGB">
<feFlood flood-opacity="0" result="BackgroundImageFix"/>
<feColorMatrix in="SourceAlpha" type="matrix" values="0 0 0 0 0 0 0 0 0 0 0 0 0 0 0 0 0 0 127 0" result="hardAlpha"/>
<feOffset dy="8"/>
<feGaussianBlur stdDeviation="2"/>
<feComposite in2="hardAlpha" operator="out"/>
<feColorMatrix type="matrix" values="0 0 0 0 0 0 0 0 0 0 0 0 0 0 0 0 0 0 0.25 0"/>
<feBlend mode="normal" in2="BackgroundImageFix" result="effect1_dropShadow_14_3"/>
<feBlend mode="normal" in="SourceGraphic" in2="effect1_dropShadow_14_3" result="shape"/>
</filter>
<filter id="filter16_d_14_3" x="1101.94" y="19.706" width="28.4922" height="60.5994" filterUnits="userSpaceOnUse" color-interpolation-filters="sRGB">
<feFlood flood-opacity="0" result="BackgroundImageFix"/>
<feColorMatrix in="SourceAlpha" type="matrix" values="0 0 0 0 0 0 0 0 0 0 0 0 0 0 0 0 0 0 127 0" result="hardAlpha"/>
<feOffset dy="8"/>
<feGaussianBlur stdDeviation="2"/>
<feComposite in2="hardAlpha" operator="out"/>
<feColorMatrix type="matrix" values="0 0 0 0 0 0 0 0 0 0 0 0 0 0 0 0 0 0 0.25 0"/>
<feBlend mode="normal" in2="BackgroundImageFix" result="effect1_dropShadow_14_3"/>
<feBlend mode="normal" in="SourceGraphic" in2="effect1_dropShadow_14_3" result="shape"/>
</filter>
<filter id="filter17_d_14_3" x="0" y="0" width="71.5986" height="87.4085" filterUnits="userSpaceOnUse" color-interpolation-filters="sRGB">
<feFlood flood-opacity="0" result="BackgroundImageFix"/>
<feColorMatrix in="SourceAlpha" type="matrix" values="0 0 0 0 0 0 0 0 0 0 0 0 0 0 0 0 0 0 127 0" result="hardAlpha"/>
<feOffset dy="8"/>
<feGaussianBlur stdDeviation="2"/>
<feComposite in2="hardAlpha" operator="out"/>
<feColorMatrix type="matrix" values="0 0 0 0 0 0 0 0 0 0 0 0 0 0 0 0 0 0 0.25 0"/>
<feBlend mode="normal" in2="BackgroundImageFix" result="effect1_dropShadow_14_3"/>
<feBlend mode="normal" in="SourceGraphic" in2="effect1_dropShadow_14_3" result="shape"/>
</filter>
<filter id="filter18_d_14_3" x="986.067" y="0.623627" width="62.7188" height="89.8454" filterUnits="userSpaceOnUse" color-interpolation-filters="sRGB">
<feFlood flood-opacity="0" result="BackgroundImageFix"/>
<feColorMatrix in="SourceAlpha" type="matrix" values="0 0 0 0 0 0 0 0 0 0 0 0 0 0 0 0 0 0 127 0" result="hardAlpha"/>
<feOffset dy="8"/>
<feGaussianBlur stdDeviation="2"/>
<feComposite in2="hardAlpha" operator="out"/>
<feColorMatrix type="matrix" values="0 0 0 0 0 0 0 0 0 0 0 0 0 0 0 0 0 0 0.25 0"/>
<feBlend mode="normal" in2="BackgroundImageFix" result="effect1_dropShadow_14_3"/>
<feBlend mode="normal" in="SourceGraphic" in2="effect1_dropShadow_14_3" result="shape"/>
</filter>
</defs>
</svg>
